<?xml version="1.0" encoding="UTF-8" standalone="no"?>
<!DOCTYPE svg PUBLIC "-//W3C//DTD SVG 1.1//EN" "http://www.w3.org/Graphics/SVG/1.1/DTD/svg11.dtd">
<svg version="1.1" xmlns="http://www.w3.org/2000/svg" xmlns:xlink="http://www.w3.org/1999/xlink" preserveAspectRatio="xMidYMid meet" viewBox="0 0 640 640" width="640" height="640"><defs><path d="M605.61 154.18C596.01 154.24 519.24 154.77 509.65 154.83C505.32 154.22 500.91 154.92 496.99 156.84C493.11 159.22 490.17 162.87 488.66 167.17C478.48 192.93 466.57 217.98 453.01 242.13C410.35 314.78 393.03 318.78 386.04 314.12C369.71 303.79 374.1 272.14 374.1 249.48C374.1 178.84 384.76 149.52 353.2 142C338.45 138.63 323.33 137.18 308.21 137.67C281.4 135.16 254.36 137.88 228.58 145.67C217.59 151.01 209.26 162.99 214.25 163.58C225.14 164.69 235.23 169.8 242.58 177.91C249.11 191.53 252.42 206.46 252.26 221.56C255.93 304.53 238.94 314.86 238.94 314.86C225.95 321.85 203.29 310.21 169.97 241.57C157.13 218.5 145.66 194.69 135.64 170.27C134.01 166.05 131.24 162.36 127.64 159.61C123.27 156.52 118.26 154.48 112.98 153.64C103.8 153.69 30.4 154.12 21.23 154.18C14.28 153.43 7.35 155.74 2.24 160.51C2.24 160.51 -2.75 165.85 1.91 176.84C38.4 268.63 90.01 353.67 154.6 428.41C154.6 428.41 228.91 506.06 313.22 500.72C317.05 500.72 347.7 500.72 351.53 500.72C358.08 500.38 364.31 497.81 369.2 493.44C372.84 488.55 374.61 482.52 374.19 476.45C373.53 425.12 397.51 417.48 397.51 417.48C420.82 410.14 450.83 467.13 482.81 489.14C495.27 497.93 510.22 502.48 525.47 502.12C534 501.99 602.24 500.91 610.77 500.78C655.76 500.45 634.42 463.13 634.42 463.13C617.63 435.07 596.09 410.15 570.76 389.48C517.44 339.82 524.46 347.68 589.09 261.84C628.45 209.5 644.12 177.5 639.25 163.85C639.25 163.85 634.6 150.54 605.61 154.18Z" id="a6NK85EII"></path></defs><g><g><g><use xlink:href="#a6NK85EII" opacity="1" fill="#444444" fill-opacity="1"></use><g><use xlink:href="#a6NK85EII" opacity="1" fill-opacity="0" stroke="#000000" stroke-width="1" stroke-opacity="0"></use></g></g></g></g></svg>